
<svg xmlns="http://www.w3.org/2000/svg" style="display:none">
  <symbol id="icon-arrow" viewBox="0 0 32 32">
    <path fill="none" stroke="#e8e8e8" style="stroke: var(--color1, #e8e8e8)" stroke-linejoin="miter" stroke-linecap="butt" stroke-miterlimit="4" stroke-width="0.7619" d="M16 0.381c8.626 0 15.619 6.993 15.619 15.619s-6.993 15.619-15.619 15.619c-8.626 0-15.619-6.993-15.619-15.619s6.993-15.619 15.619-15.619z"></path>
    <path fill="none" stroke="#050505" style="stroke: var(--color2, #050505)" stroke-linejoin="round" stroke-linecap="round" stroke-miterlimit="4" stroke-width="1.1429" d="M13.143 18.857l5.714-5.714M13.143 13.143h5.714v5.714"></path>
  </symbol>

  <symbol id="icon-heart" viewBox="0 0 32 32">
    <path fill="none" stroke="#e8e8e8" style="stroke: var(--color1, #e8e8e8)" stroke-linejoin="miter" stroke-linecap="butt" stroke-miterlimit="4" stroke-width="0.7619" d="M16 0.381c8.626 0 15.619 6.993 15.619 15.619s-6.993 15.619-15.619 15.619c-8.626 0-15.619-6.993-15.619-15.619s6.993-15.619 15.619-15.619z"></path>
    <path fill="none" stroke="#050505" style="stroke: var(--color2, #050505)" stroke-linejoin="round" stroke-linecap="round" stroke-miterlimit="4" stroke-width="1.1429" d="M21.051 11.777c-0.569-0.569-1.355-0.921-2.223-0.921s-1.654 0.352-2.223 0.921l-0.606 0.606-0.606-0.606c-0.57-0.574-1.359-0.93-2.232-0.93-1.736 0-3.144 1.407-3.144 3.144 0 0.872 0.355 1.662 0.929 2.231l5.052 5.052 5.051-5.051c0.569-0.569 0.921-1.355 0.921-2.223s-0.352-1.654-0.921-2.223v0z"></path>
  </symbol>
</svg>
