<svg xmlns="http://www.w3.org/2000/svg">
    <symbol id="icon-quote" viewBox="0 0 59 48">
        <path fill="currentColor" d="M0 48V31.941c0-6 1.057-11.53 3.17-16.588C5.284 10.294 8.865 5.176 13.913 0l9.159 7.235c-2.936 2.942-5.166 5.706-6.693 8.294-1.526 2.589-2.524 5.236-2.994 7.942h11.272V48H0Zm34.343 0V31.941c0-6 1.057-11.53 3.17-16.588C39.627 10.294 43.208 5.176 48.257 0l9.158 7.235c-2.935 2.942-5.166 5.706-6.693 8.294-1.526 2.589-2.524 5.236-2.994 7.942H59V48H34.343Z"/>
    </symbol>

    <symbol id="icon-menu" viewBox="0 0 28 28">
    <path
        stroke="currentColor"
        stroke-linecap="round"
        stroke-linejoin="round"
        stroke-width="2"
        d="M24.5 11.667h-21M24.5 7h-21m21 9.333h-21M24.5 21h-21"
    />
    </symbol>

    <symbol id="icon-arrow-up-right-mini" viewBox="0 0 32 32">
        <path stroke="currentColor" stroke-linecap="round" stroke-linejoin="round" stroke-width="1.5" d="m5.25 12.75 7.5-7.5m-7.5 0h7.5v7.5"/>
    </symbol>

    <symbol id="icon-arrow-up-right" viewBox="0 0 1024 1024">
        <path fill="none" stroke="currentColor" stroke-linecap="round" stroke-linejoin="round" stroke-width="85.333" d="m298.667 725.333 426.667-426.667m-426.667.001h426.667v426.667"/>
    </symbol>

    <symbol id="icon-youtube" viewBox="0 0 1024 1024">
        <path fill="currentColor" d="M963.584 299.398s-9.216-66.56-36.864-95.086c-33.792-38.034-73.728-38.034-92.16-41.204C705.536 153.6 512 153.6 512 153.6s-193.536 0-322.56 9.508c-18.432 3.17-58.368 3.17-92.16 41.204-27.648 28.526-36.864 95.086-36.864 95.086S51.2 375.466 51.2 451.535v69.732c0 76.068 9.216 155.305 9.216 155.305s9.216 66.56 36.864 95.084c33.792 38.036 79.872 38.036 101.376 41.206C272.384 816.031 512 819.201 512 819.201s193.536 0 322.56-9.508c18.432-3.169 58.368-3.169 92.16-41.206 27.648-28.524 36.864-95.084 36.864-95.084s9.216-76.068 9.216-152.136v-69.732c0-76.069-9.216-152.137-9.216-152.137zM416.768 610.012V343.771L665.6 476.891 416.768 610.012z"/>
    </symbol>

    <symbol id="icon-facebook" viewBox="0 0 1024 1024">
        <path fill="currentColor" d="M624.64 148.485h30.72v115.2h-38.4c-15.36 0-30.72 0-38.4 7.68s-7.68 15.36-7.68 33.28v40.96h84.48v97.28h-84.48v422.4H440.321v-424.96H371.2v-97.28h69.121v-33.28c0-56.32 7.679-97.28 23.039-115.2 23.04-33.28 69.12-48.64 138.24-48.64 7.68 2.56 15.36 2.56 23.04 2.56z"/>
    </symbol>

    <symbol id="favicon" viewBox="0 0 1024 1024">
        <path fill="#050505" d="M0 0h1024v1024H0V0z"/>
        <path fill="#fff" d="M232.107 477.867V370.279h-26.214v-30.857h37.956l-11.742 10.65v-19.934c0-18.022 4.642-31.585 13.926-40.687 9.466-9.102 23.575-13.653 42.325-13.653 4.187 0 8.647.273 13.38.819 4.915.546 9.193 1.638 12.834 3.277v31.676c-2.549-.91-5.461-1.547-8.738-1.911-3.277-.546-6.463-.819-9.557-.819-4.187 0-8.101.728-11.742 2.185-3.459 1.456-6.281 3.914-8.465 7.373-2.002 3.277-3.004 7.737-3.004 13.38v14.473l-5.734-6.827h40.687v30.857H273.34v107.588h-41.233zm151.832 3.003c-14.746 0-27.58-2.913-38.502-8.738-10.741-6.007-19.115-14.382-25.122-25.122-5.825-10.741-8.738-23.575-8.738-38.502 0-14.746 2.913-27.489 8.738-38.229 6.007-10.741 14.382-19.024 25.122-24.849 10.923-5.825 23.757-8.738 38.502-8.738s27.58 2.913 38.502 8.738c10.923 5.825 19.297 14.108 25.122 24.849 6.007 10.741 9.011 23.484 9.011 38.229 0 14.928-3.004 27.762-9.011 38.502-5.825 10.741-14.199 19.115-25.122 25.122-10.923 5.825-23.757 8.738-38.502 8.738zm0-31.129c9.466 0 16.93-3.368 22.391-10.103 5.643-6.736 8.465-17.112 8.465-31.13s-2.822-24.303-8.465-30.857c-5.461-6.554-12.925-9.83-22.391-9.83s-17.021 3.277-22.665 9.83c-5.461 6.554-8.192 16.839-8.192 30.857s2.731 24.394 8.192 31.13c5.643 6.736 13.198 10.103 22.665 10.103zm159.339 31.129c-14.746 0-27.58-2.913-38.502-8.738-10.741-6.007-19.115-14.382-25.122-25.122-5.825-10.741-8.738-23.575-8.738-38.502 0-14.746 2.913-27.489 8.738-38.229 6.007-10.741 14.382-19.024 25.122-24.849 10.923-5.825 23.757-8.738 38.502-8.738s27.58 2.913 38.502 8.738c10.923 5.825 19.297 14.108 25.122 24.849 6.007 10.741 9.011 23.484 9.011 38.229 0 14.928-3.004 27.762-9.011 38.502-5.825 10.741-14.199 19.115-25.122 25.122-10.923 5.825-23.757 8.738-38.502 8.738zm0-31.129c9.466 0 16.93-3.368 22.391-10.103 5.643-6.736 8.465-17.112 8.465-31.13s-2.822-24.303-8.465-30.857c-5.461-6.554-12.925-9.83-22.391-9.83s-17.021 3.277-22.665 9.83c-5.461 6.554-8.192 16.839-8.192 30.857s2.731 24.394 8.192 31.13c5.643 6.736 13.198 10.103 22.665 10.103zm148.143 31.129c-12.015 0-22.665-2.913-31.949-8.738-9.102-5.825-16.293-14.108-21.572-24.849-5.097-10.741-7.646-23.666-7.646-38.775 0-14.928 2.549-27.762 7.646-38.502s12.288-18.933 21.572-24.576c9.284-5.825 19.934-8.738 31.949-8.738 10.923 0 20.662 2.64 29.218 7.919 8.738 5.097 14.564 12.015 17.476 20.753h-3.55V276.89h41.233v200.977h-40.687v-27.034h3.55c-2.913 9.102-8.738 16.384-17.476 21.845s-18.66 8.192-29.764 8.192zm12.288-31.129c9.466 0 17.112-3.368 22.938-10.103s8.738-17.112 8.738-31.13c0-14.017-2.913-24.303-8.738-30.857s-13.471-9.83-22.938-9.83c-9.466 0-17.203 3.277-23.211 9.83-5.825 6.554-8.738 16.839-8.738 30.857s2.913 24.394 8.738 31.13c6.007 6.736 13.744 10.103 23.211 10.103zM221.73 750.933V612.488h41.233v138.445H221.73zm-1.638-161.109v-38.502h44.237v38.502h-44.237zm140.743 164.113c-24.03 0-42.78-6.463-56.252-19.388s-20.207-30.492-20.207-52.702c0-14.382 2.822-26.943 8.465-37.683 5.825-10.741 13.835-19.115 24.03-25.122 10.377-6.19 22.482-9.284 36.318-9.284 13.653 0 25.031 2.913 34.133 8.738 9.284 5.825 16.202 14.017 20.753 24.576 4.733 10.377 7.1 22.482 7.1 36.318v9.557h-96.939v-20.48h66.901l-4.642 3.823c0-11.469-2.367-20.116-7.1-25.941-4.551-6.007-11.196-9.011-19.934-9.011-9.648 0-17.112 3.55-22.391 10.65-5.097 7.1-7.646 17.294-7.646 30.583v4.369c0 13.471 3.277 23.484 9.83 30.037 6.736 6.554 16.384 9.83 28.945 9.83 7.464 0 14.473-.91 21.026-2.731 6.736-2.002 13.107-5.097 19.115-9.284l11.469 27.307c-6.918 5.097-14.928 9.011-24.03 11.742-8.92 2.731-18.569 4.096-28.945 4.096zm126.102 0c-12.379 0-23.666-1.365-33.86-4.096s-18.842-6.554-25.941-11.469l10.65-27.307c7.1 4.369 14.928 7.828 23.484 10.377 8.738 2.549 17.385 3.823 25.941 3.823 8.01 0 13.926-1.274 17.749-3.823s5.734-6.007 5.734-10.377c0-3.641-1.274-6.463-3.823-8.465-2.367-2.002-6.098-3.459-11.196-4.369l-28.126-5.188c-11.833-2.367-20.844-6.736-27.034-13.107s-9.284-14.655-9.284-24.849c0-8.92 2.367-16.748 7.1-23.484 4.915-6.918 11.924-12.288 21.026-16.111s19.752-5.734 31.949-5.734c10.377 0 20.207 1.274 29.491 3.823s17.203 6.463 23.757 11.742l-11.196 26.487c-5.643-4.187-12.197-7.555-19.661-10.103-7.282-2.549-14.29-3.823-21.026-3.823-8.738 0-15.019 1.456-18.842 4.369-3.823 2.731-5.734 6.281-5.734 10.65 0 3.277 1.092 6.007 3.277 8.192 2.367 2.185 5.916 3.823 10.65 4.915l28.399 5.188c12.197 2.185 21.481 6.281 27.853 12.288s9.557 14.29 9.557 24.849c0 9.648-2.549 17.84-7.646 24.576s-12.288 11.924-21.572 15.565c-9.102 3.641-19.661 5.461-31.676 5.461z"/>
    </symbol>

    <symbol id="icon-heart" viewBox="0 0 1024 1024">
        <path fill="none" stroke="currentColor" stroke-linecap="round" stroke-linejoin="round" stroke-width="85.333" d="M889.151 196.688a234.688 234.688 0 0 0-165.974-68.77 234.66 234.66 0 0 0-165.974 68.77l-45.227 45.227-45.227-45.227a234.726 234.726 0 0 0-165.973-68.748A234.726 234.726 0 0 0 66.054 362.661a234.721 234.721 0 0 0 68.749 165.973l377.173 377.173 377.173-377.173a234.676 234.676 0 0 0 68.772-165.974c0-30.826-6.076-61.35-17.874-89.828s-29.099-54.353-50.898-76.145z"/>
    </symbol>

    <symbol id="icon-instagram" viewBox="0 0 1024 1024">
        <path d="M918.963 344.191c-.502-34.38-6.871-68.487-19.062-100.64a209.527 209.527 0 0 0-119.777-119.579c-31.8-11.944-65.418-18.348-99.446-19.074-43.761-1.953-57.636-2.498-168.724-2.498s-125.327 0-168.771 2.498c-33.982.727-67.599 7.13-99.398 19.074-54.999 21.255-98.488 64.671-119.778 119.579a297.193 297.193 0 0 0-19.06 99.232c-1.956 43.735-2.548 57.587-2.548 168.49s0 125.076 2.548 168.488c.682 33.971 7.096 67.487 19.06 99.323A209.537 209.537 0 0 0 243.83 898.621c31.662 12.349 65.279 19.343 99.398 20.434 43.808 1.956 57.682 2.545 168.771 2.545s125.327 0 168.771-2.545c33.981-.681 67.599-7.081 99.446-19.026 54.994-21.299 98.442-64.717 119.777-119.578 11.96-31.795 18.376-65.311 19.057-99.323 1.956-43.694 2.55-57.544 2.55-168.494-.092-110.903-.092-124.982-2.637-168.444zM511.682 721.004c-116.184 0-210.305-93.967-210.305-209.957s94.121-209.954 210.305-209.954c116.092 0 210.305 93.964 210.305 209.954s-94.213 209.957-210.305 209.957zm218.676-378.721c-27.162 0-49.039-21.89-49.039-48.957s21.878-48.958 49.039-48.958c27.064 0 48.993 21.891 48.993 48.958s-21.929 48.957-48.993 48.957z"/>
        <path d="M511.728 639.232c70.764 0 128.129-57.364 128.129-128.129 0-70.763-57.364-128.128-128.129-128.128S383.6 440.34 383.6 511.103c0 70.765 57.364 128.129 128.128 128.129z"/>
    </symbol>

    <symbol id="icon-minus" viewBox="0 0 1024 1024">
        <path fill="none" stroke="currentColor" stroke-linecap="round" stroke-linejoin="round" stroke-width="64" d="M213.333 512h597.333"/>
    </symbol>

    <symbol id="icon-noname-user" viewBox="0 0 1024 1024">
        <path fill="none" stroke="currentColor" stroke-width="32" d="M1008 512c0 273.933-222.067 496-496 496S16 785.933 16 512 238.067 16 512 16s496 222.067 496 496z"/>
        <path fill="currentColor" d="M672 416c0 88.366-71.634 160-160 160s-160-71.634-160-160 71.634-160 160-160 160 71.634 160 160zm80 304c0 70.692-107.452 128-240 128s-240-57.308-240-128c0-70.692 107.452-128 240-128s240 57.308 240 128z"/>
    </symbol>

    <symbol id="icon-photocamera" viewBox="0 0 1024 1024">
        <path fill="none" stroke="currentColor" stroke-linecap="round" stroke-linejoin="round" stroke-width="16" d="M910.096 365.714V219.135a97.517 97.517 0 0 0-97.23-97.523l-146.578-.439m243.808 537.112V804.57a97.524 97.524 0 0 1-97.523 97.525H666.288M373.715 121.172l-146.578.488a97.524 97.524 0 0 0-97.231 97.524v146.53m243.809 536.38H227.43a97.522 97.522 0 0 1-97.524-97.525V658.284"/>
        <path fill="currentColor" d="M520 600c20 0 37.003-6.997 51.008-20.992C585.003 565.003 592 548 592 528s-6.997-37.003-20.992-51.008C557.003 462.997 540 456 520 456s-37.003 6.997-51.008 20.992C454.997 490.997 448 508 448 528s6.997 37.003 20.992 51.008C482.997 593.003 500 600 520 600zm-128 56c-8.8 0-16.331-3.131-22.592-9.392C363.136 640.336 360 632.8 360 624V432c0-8.8 3.136-16.331 9.408-22.592C375.669 403.136 383.2 400 392 400h50.4l29.6-32h96l29.6 32H648c8.8 0 16.336 3.136 22.608 9.408C676.869 415.669 680 423.2 680 432v192c0 8.8-3.131 16.336-9.392 22.608C664.336 652.869 656.8 656 648 656H392z"/>
    </symbol>

    <symbol id="icon-plus" viewBox="0 0 1024 1024">
        <path fill="none" stroke="currentColor" stroke-linecap="round" stroke-linejoin="round" stroke-width="64" d="M512 213.333v597.333M213.333 512h597.333"/>
    </symbol>

    <symbol id="icon-eye-open" viewBox="0 0 1024 1024">
        <path fill="none" stroke="currentColor" stroke-linecap="round" stroke-linejoin="round" stroke-width="92.16" d="M42.65 512.01s170.667-341.335 469.334-341.335S981.315 512.01 981.315 512.01 810.65 853.34 511.984 853.34c-298.667 0-469.334-341.33-469.334-341.33z"/>
        <path fill="none" stroke="currentColor" stroke-linecap="round" stroke-linejoin="round" stroke-width="92.16" d="M512 640c70.692 0 128-57.308 128-128s-57.308-128-128-128c-70.692 0-128 57.308-128 128s57.308 128 128 128z"/>
    </symbol>

    <symbol id="icon-eye-close" viewBox="0 0 1024 1024">
        <path fill="none" stroke="currentColor" stroke-linecap="round" stroke-linejoin="round" stroke-width="92.16" d="M765.425 765.45a429.635 429.635 0 0 1-253.441 87.89c-298.667 0-469.334-341.33-469.334-341.33a787.186 787.186 0 0 1 215.893-253.441m163.841-77.653a389.083 389.083 0 0 1 89.6-10.24c298.666 0 469.331 341.334 469.331 341.334a789.07 789.07 0 0 1-92.16 136.105m-286.72-45.655a128.02 128.02 0 0 1-91.386 40.724c-17.187.302-34.258-2.862-50.196-9.298s-30.417-16.02-42.571-28.175a128.016 128.016 0 0 1-37.47-92.769 128.007 128.007 0 0 1 40.72-91.386M42.65 42.675 981.315 981.34"/>
    </symbol>

    <symbol id="icon-trash" viewBox="0 0 1024 1024">
        <path fill="none" stroke="currentColor" stroke-linecap="round" stroke-linejoin="round" stroke-width="85.333" d="M384 128h256M128 256h768m-85.333 0-29.924 448.825c-4.489 67.339-6.73 101.006-21.276 126.538a128.036 128.036 0 0 1-55.398 51.826C677.633 896 643.886 896 576.399 896H447.602c-67.488 0-101.232 0-127.672-12.811a128.026 128.026 0 0 1-55.396-51.826c-14.544-25.532-16.788-59.199-21.278-126.538L213.335 256"/>
    </symbol>

    <symbol id="icon-arrow-down" viewBox="0 0 1536 1024">
        <path fill="none" stroke="currentColor" stroke-linecap="round" stroke-linejoin="round" stroke-width="230.4" d="m192 224 576 576 576-576"/>
    </symbol>

    <symbol id="icon-chevron-down" viewBox="0 0 32 32">
        <path fill="none" stroke-linejoin="round" stroke-linecap="round" stroke-width="3.2" d="m8 12 8 8 8-8"/>
    </symbol>

    <symbol id="icon-chevron-up" viewBox="0 0 32 32">
        <path fill="none" stroke-linejoin="round" stroke-linecap="round" stroke-width="3.2" d="m8 20 8-8 8 8"/>
    </symbol>

    <symbol id="icon-close" viewBox="0 0 24 24">
        <path d="M18 6L6 18" stroke="currentColor" stroke-width="2" stroke-linecap="round" stroke-linejoin="round"/>
        <path d="M6 6L18 18" stroke="currentColor" stroke-width="2" stroke-linecap="round" stroke-linejoin="round"/>
    </symbol>
</svg>